<?xml version="1.0" encoding="iso-8859-1"?>
<!-- Generator: Adobe Illustrator 19.0.0, SVG Export Plug-In . SVG Version: 6.00 Build 0)  -->
<svg version="1.1" id="Capa_1" xmlns="http://www.w3.org/2000/svg" xmlns:xlink="http://www.w3.org/1999/xlink" x="0px" y="0px"
	 viewBox="0 0 512 512" style="enable-background:new 0 0 512 512;" xml:space="preserve">
<polygon style="fill:#F97DA3;" points="342.564,492.046 205.885,373.59 69.205,492.046 69.205,9.112 342.564,9.112 "/>
<path d="M351.675,512L205.885,385.647L60.093,512V0h291.583V512z M205.885,361.533l127.567,110.558V18.224H78.317v453.868
	L205.885,361.533z"/>
<circle style="fill:#9BFC1D;" cx="342.563" cy="154.908" r="100.231"/>
<path d="M342.564,264.246c-60.291,0-109.344-49.05-109.344-109.344S282.272,45.559,342.564,45.559s109.344,49.05,109.344,109.344
	S402.854,264.246,342.564,264.246z M342.564,63.784c-50.245,0-91.119,40.877-91.119,91.119s40.875,91.119,91.119,91.119
	s91.119-40.877,91.119-91.119S392.809,63.784,342.564,63.784z"/>
<rect x="96.536" y="9.112" width="18.224" height="446.488"/>
<path style="fill:#EE5281;" d="M379.13,106.004c-11.221-4.401-24.693,0.821-36.083,12.365
	c-11.39-11.545-24.862-16.766-36.083-12.365c-18.192,7.139-23.573,36.799-12.019,66.253c10.373,26.443,37.992,40.995,48.103,41.756
	c10.109-0.761,37.732-15.313,48.103-41.756C402.702,142.803,397.322,113.139,379.13,106.004z"/>
<path d="M343.048,223.125c-0.227,0-0.458-0.009-0.685-0.027c-13.779-1.037-44.242-17.799-55.9-47.513
	c-13.597-34.659-6.055-68.947,17.169-78.063c12.204-4.785,26.499-1.546,39.415,8.627c12.92-10.18,27.216-13.412,39.411-8.627l0,0
	c11.848,4.647,19.945,15.875,22.798,31.612c2.572,14.157,0.57,30.653-5.623,46.452c-11.656,29.712-42.121,46.476-55.9,47.513
	C343.506,223.116,343.276,223.125,343.048,223.125z M315.37,113.561c-1.793,0-3.497,0.305-5.082,0.926
	c-11.568,4.541-17.232,28.015-6.86,54.442c8.868,22.607,32.395,34.709,39.62,35.912c7.225-1.203,30.753-13.306,39.615-35.912
	c4.908-12.506,6.607-25.825,4.663-36.541c-0.974-5.382-3.768-14.861-11.523-17.901l0,0c-7.275-2.849-17.098,0.987-26.268,10.282
	c-3.426,3.471-9.548,3.471-12.974,0C329.389,117.496,321.812,113.561,315.37,113.561z"/>
<g>
</g>
<g>
</g>
<g>
</g>
<g>
</g>
<g>
</g>
<g>
</g>
<g>
</g>
<g>
</g>
<g>
</g>
<g>
</g>
<g>
</g>
<g>
</g>
<g>
</g>
<g>
</g>
<g>
</g>
</svg>
