<?xml version="1.0" encoding="UTF-8"?>
<svg xmlns="http://www.w3.org/2000/svg" xmlns:xlink="http://www.w3.org/1999/xlink" width="480pt" height="480pt" viewBox="0 0 480 480" version="1.1">
<g id="surface11014989">
<path style=" stroke:none;fill-rule:nonzero;fill:rgb(0%,87.45098%,75.294118%);fill-opacity:1;" d="M 384 64 L 96 64 C 78.320312 64 64 78.320312 64 96 L 64 384 C 64 401.679688 78.320312 416 96 416 L 384 416 C 401.679688 416 416 401.679688 416 384 L 416 96 C 416 78.320312 401.679688 64 384 64 Z M 360.671875 336 L 265.777344 336 L 265.777344 330.671875 L 288 311.121094 L 288 199.519531 L 233.425781 336 L 224.894531 336 L 164 198.449219 L 164 295.839844 L 191.839844 330.671875 L 191.839844 336 L 119.328125 336 L 119.328125 330.671875 L 148.113281 295.839844 L 148.113281 179.96875 L 122.527344 147.984375 C 122.527344 147.984375 122.527344 143.359375 122.527344 144.078125 L 192.542969 144.078125 L 246.929688 261.726562 L 293.839844 144.078125 L 360.304688 144.078125 L 360.304688 147.984375 L 336 168.414062 L 336 311.121094 L 360.671875 330.671875 Z M 360.671875 336 "/>
</g>
</svg>
