<svg xmlns="http://www.w3.org/2000/svg"  viewBox="0 0 48 48" width="48px" height="48px"><path fill="#2b8c5e" d="M3.864,34.712l10.614-0.28l-1.103,9.329l-5.484-0.405c-1.987-0.147-3.563-1.733-3.697-3.722 L3.864,34.712z"/><polygon fill="#d03827" points="34.422,34.477 34.239,43.272 35.249,42.814 43.353,34.477"/><polygon fill="#38b47b" points="13.239,43.761 33.946,43.598 34.239,34.477 14.253,34.432"/><path fill="#4b7bb2" d="M14.413,34.109L9.75,34.371l-5.908,0.106l-0.277-7.118L3.424,10.826c0,0,0.059-6.248,5.312-6.401 s6.489,0.726,10.111,0.655s7.34-0.456,9.398-0.673c2.057-0.217,6.358-0.265,6.358-0.265l-0.364,9.522l-20.8,0.09 c0,0,0.061,8.193,0.673,12.277S14.413,34.109,14.413,34.109z"/><polygon fill="#d6e5e5" points="14.279,34.371 14.324,27.719 13.511,17.203 13.439,13.555 25.304,13.555 34.239,13.663 34.432,16.435 34.966,28.109 34.239,34.371"/><polygon fill="#febf10" points="34.533,13.663 44.121,13.555 43.418,34.371 34.321,34.477 34.859,25.793"/><path fill="#1e4384" d="M34.712,4.418l-0.28,9.065l9.737-0.171l0.068-2.788c0.083-3.397-2.469-5.982-5.867-5.943 L34.712,4.418z"/><path d="M17.69,44.37c-2.839,0.001-5.687-0.127-8.507-0.512c-0.069-0.009-0.169-0.017-0.293-0.026 c-1.153-0.089-4.663-0.362-5.002-3.573c-0.064-0.608-0.137-1.348-0.21-2.087c-0.072-0.736-0.145-1.473-0.208-2.079 C2.952,31.188,3.064,16.801,3.1,14.799c0.009-0.514,0.002-1.028-0.006-1.544c-0.018-1.276-0.036-2.596,0.19-3.896 c0.379-2.185,1.471-3.92,2.993-4.762c1.729-0.954,3.8-0.717,5.627-0.508l0.225,0.025c2.282,0.259,8.037,0.796,12.155,0.206l0,0 c3.348-0.478,7.211-0.629,11.486-0.435c1.626,0.071,3.308,0.146,4.912,0.717c1.854,0.659,3.227,1.916,3.764,3.449 c0.383,1.094,0.326,2.261,0.275,3.291c-0.173,3.571-0.298,7.331-0.419,10.968c-0.121,3.641-0.246,7.404-0.42,10.983 c-0.023,0.489-0.051,1.043-0.26,1.563c-0.206,0.513-4.876,5.495-6.862,7.237c-0.247,0.217-0.434,0.397-0.604,0.563 c-0.414,0.401-0.771,0.748-1.652,1.298c-0.043,0.027-0.089,0.047-0.138,0.06c-0.947,0.247-3.022,0.167-4.854,0.096 c-0.892-0.034-1.737-0.066-2.196-0.047l-1.164,0.053C23.367,44.243,20.533,44.37,17.69,44.37z M9.403,4.899 c-0.945,0-1.85,0.136-2.642,0.573C5.505,6.167,4.597,7.646,4.269,9.531c-0.209,1.207-0.192,2.423-0.175,3.71 c0.008,0.525,0.015,1.051,0.006,1.575c-0.033,1.895-0.14,16.39,0.365,21.171c0.064,0.608,0.137,1.348,0.21,2.087 c0.072,0.736,0.145,1.473,0.208,2.079c0.224,2.113,2.301,2.543,4.086,2.682c0.147,0.012,0.268,0.021,0.35,0.033 c5.554,0.757,11.012,0.511,16.789,0.25l1.164-0.052c0.507-0.025,1.327,0.009,2.279,0.046c1.544,0.061,3.639,0.143,4.492-0.047 c0.739-0.468,1.025-0.745,1.417-1.125c0.182-0.176,0.379-0.367,0.641-0.598c2.191-1.921,6.344-6.476,6.62-6.909 c0.12-0.313,0.142-0.737,0.164-1.188c0.173-3.571,0.298-7.331,0.419-10.968c0.121-3.641,0.246-7.404,0.42-10.983 c0.048-0.984,0.097-2.003-0.221-2.912c-0.431-1.227-1.61-2.288-3.156-2.838c-1.463-0.52-3.068-0.591-4.621-0.66 c-4.212-0.188-8.016-0.043-11.299,0.427l0,0c-4.084,0.585-9.528,0.125-12.411-0.202l-0.225-0.026 C10.994,4.992,10.185,4.899,9.403,4.899z"/><path d="M35.106,14.055c-0.253,0-0.73-0.035-1.002-0.43c-0.176-0.259-0.174-0.545-0.173-0.715c0.013-2.715,0.098-5.479,0.254-8.212 c0.016-0.275,0.231-0.497,0.527-0.471c0.275,0.016,0.486,0.252,0.471,0.527c-0.154,2.717-0.239,5.462-0.252,8.16 c0,0.031-0.001,0.102,0.005,0.144c0.012-0.011,0.067-0.004,0.181-0.004c0.017,0,0.035-0.001,0.055-0.001l8.65-0.155 c0.309-0.021,0.504,0.215,0.509,0.491s-0.215,0.504-0.491,0.509l-8.649,0.155C35.167,14.054,35.138,14.055,35.106,14.055z M34.94,13.08h0.01H34.94z"/><path d="M13.376,43.946c-0.025,0-0.052-0.002-0.077-0.006c-0.272-0.042-0.46-0.298-0.418-0.57 c0.826-5.363,1.137-10.834,0.921-16.259c-0.063-1.589-0.229-3.276-0.391-4.909c-0.285-2.89-0.579-5.877-0.36-8.687 c0.02-0.26,0.237-0.461,0.498-0.461h0.001c2.038,0.004,4.068,0.016,6.094,0.026c4.888,0.027,9.938,0.054,14.951-0.026 c0.265,0.006,0.503,0.216,0.508,0.492c0.005,0.275-0.216,0.503-0.492,0.508c-5.021,0.081-10.079,0.054-14.973,0.026 c-1.869-0.011-3.741-0.021-5.621-0.025c-0.148,2.591,0.125,5.362,0.39,8.048c0.163,1.647,0.331,3.35,0.396,4.969 c0.218,5.488-0.097,11.023-0.933,16.45C13.831,43.77,13.618,43.946,13.376,43.946z"/><path d="M43.113,35.082c-0.002,0-0.005,0-0.008,0c-12.489-0.187-25.787-0.344-38.994-0.035c-0.285,0-0.505-0.212-0.512-0.488 c-0.006-0.276,0.212-0.505,0.488-0.512c13.225-0.309,26.534-0.151,39.033,0.035c0.275,0.004,0.496,0.231,0.492,0.508 C43.609,34.863,43.386,35.082,43.113,35.082z"/><path d="M34.239,43.869c-0.001,0-0.001,0-0.002,0c-0.276-0.001-0.499-0.226-0.498-0.502C33.755,39.64,33.771,35.785,34.09,32 c0.036-0.428,0.076-0.854,0.116-1.281c0.096-1.027,0.195-2.09,0.235-3.131c0.064-1.631-0.01-3.28-0.082-4.875l-0.391-8.664 c-0.013-0.275,0.201-0.51,0.477-0.521c0.008-0.001,0.016-0.001,0.022-0.001c0.267,0,0.487,0.209,0.499,0.478l0.391,8.664 c0.073,1.615,0.149,3.286,0.084,4.959c-0.042,1.068-0.143,2.144-0.24,3.185c-0.039,0.424-0.079,0.849-0.115,1.272 c-0.315,3.745-0.331,7.579-0.347,11.287C34.738,43.646,34.515,43.869,34.239,43.869z"/><path fill="#4b7bb2" d="M20.104,29.918c-0.268,0-0.53-0.027-0.782-0.083c-1.217-0.271-2.17-1.24-2.319-2.357 c-0.036-0.273,0.156-0.524,0.431-0.562c0.257-0.036,0.524,0.155,0.562,0.431c0.093,0.697,0.742,1.333,1.544,1.512 c0.735,0.166,1.602-0.006,2.447-0.475c0.318-0.177,1.066-0.66,1.111-1.318c0.022-0.331-0.141-0.698-0.286-0.98 c-0.312-0.607-0.633-1.007-1.01-1.258c-0.307-0.201-0.661-0.288-0.982-0.248c-0.13,0.049-0.263,0.092-0.396,0.129 c-0.247,0.065-0.506-0.063-0.599-0.302c-0.093-0.239,0.01-0.51,0.239-0.626c0.151-0.078,0.315-0.134,0.485-0.168 c0.609-0.241,1.161-0.636,1.582-1.136c0.304-0.361,0.459-0.697,0.463-0.999c0.002-0.18-0.051-0.386-0.156-0.612 c-0.387-0.832-1.261-1.43-2.175-1.487c-0.914-0.051-1.858,0.425-2.347,1.201c-0.146,0.233-0.456,0.305-0.689,0.156 c-0.233-0.146-0.304-0.455-0.156-0.689c0.688-1.093,1.951-1.762,3.255-1.666c1.289,0.081,2.474,0.892,3.019,2.063 c0.169,0.362,0.253,0.715,0.25,1.045c-0.007,0.54-0.241,1.089-0.697,1.631c-0.229,0.273-0.489,0.521-0.773,0.738 c0.079,0.042,0.156,0.087,0.231,0.137c0.525,0.35,0.954,0.868,1.347,1.634c0.204,0.398,0.434,0.929,0.395,1.506 c-0.057,0.82-0.634,1.575-1.625,2.125C21.688,29.693,20.87,29.918,20.104,29.918z"/><path fill="#4b7bb2" d="M29.657,30.06c-0.273,0-0.496-0.22-0.5-0.494c-0.012-0.9,0.026-1.774,0.063-2.62 c0.035-0.837,0.072-1.701,0.061-2.579c-0.019-1.499-0.038-2.998-0.034-4.496l-2.228,1.78c-0.216,0.173-0.53,0.138-0.703-0.078 s-0.138-0.53,0.078-0.703l3.047-2.435c0.151-0.12,0.357-0.145,0.531-0.059c0.174,0.084,0.283,0.262,0.281,0.454 c-0.02,1.841,0.004,3.682,0.027,5.522c0.012,0.906-0.025,1.785-0.062,2.635c-0.036,0.832-0.072,1.693-0.062,2.566 c0.004,0.275-0.218,0.502-0.494,0.506C29.661,30.06,29.659,30.06,29.657,30.06z"/></svg>